# This file uses centimeters as units for non-parametric coordinates.

mtllib c.mtl
g default
v -5.088023 2.822857 -1.183008
v -4.675279 -3.324862 -1.183008
v 3.514439 -2.999011 -1.183008
v 3.514439 2.540453 -1.183008
v 3.514439 3.670069 -1.183008
vt 0.031141 0.000000
vt 0.744293 0.000000
vt 0.770160 0.948293
vt 0.130451 0.991242
vt 0.000000 1.000000
vn 0.000000 0.000000 1.000000
vn 0.000000 0.000000 1.000000
vn 0.000000 0.000000 1.000000
vn 0.000000 0.000000 1.000000
vn 0.000000 0.000000 1.000000
s 1
g polySurface1
usemtl initialShadingGroup
f 5/5/1 1/1/2 4/4/3
f 1/1/2 2/2/4 4/4/3
f 2/2/4 3/3/5 4/4/3
g default
v -0.025680 -1.422689 1.288230
v -0.123136 2.754095 -3.549027
v -0.123136 3.097192 2.490075
vt 0.034259 0.000000
vt 0.999775 0.000000
vt 0.000000 1.000000
vn 0.999760 0.021887 -0.001243
vn 0.999760 0.021887 -0.001243
vn 0.999760 0.021887 -0.001243
s off
g polySurface2
usemtl initialShadingGroup
f 6/6/6 7/7/7 8/8/8
