# This file uses centimeters as units for non-parametric coordinates.

mtllib f.mtl
g default
v 0.000000 2.397260 4.863014
v 0.000000 -4.360731 4.680365
v 0.000000 -4.269406 -5.228311
v 0.000000 1.073059 -5.365297
vt 0.000000 0.000000
vt 0.663519 0.000000
vt 0.680833 0.972394
vt 0.157041 1.000000
vn 1.000000 0.000000 0.000000
vn 1.000000 0.000000 0.000000
vn 1.000000 0.000000 0.000000
vn 1.000000 0.000000 0.000000
s 1
g polySurface1
usemtl initialShadingGroup
f 1/1/1 2/2/2 4/4/3
f 4/4/3 2/2/2 3/3/4
g default
v -4.223744 1.575342 0.000000
v -4.452055 -3.082192 0.000000
v 5.045662 -2.762557 0.000000
v 5.000000 0.753425 0.000000
vt 0.000000 0.000000
vt 0.492375 0.000000
vt 0.409565 1.000000
vt 0.038997 0.977008
vn 0.000000 0.000000 1.000000
vn 0.000000 0.000000 1.000000
vn 0.000000 0.000000 1.000000
vn 0.000000 0.000000 1.000000
s 1
g polySurface2
usemtl initialShadingGroup
f 5/5/5 6/6/6 8/8/7
f 8/8/7 6/6/6 7/7/8
